# xmcd
#
# Track frame offsets:
#	150
#	26282
#	49365
#	68327
#	89823
#	117220
#	140515
#	167668
#	191710
#	209008
#
# Disc length: 3088 seconds
#
# Revision: 0
# Processed by: cddbd v1.5.2PL0 Copyright (c) Steve Scherf et al.
# Submitted via: EZCDAudioConverter 8.0.2.1
#
DISCID=900c0e0a
DTITLE=Various Artist - Tình Xưa Như Lá Rơi
DYEAR=1994
DGENRE=
TTITLE0=Thiên Trang - Cho người tình lỡ
TTITLE1=Giao Linh - Cuộc tình nuối tiếc
TTITLE2=Lê Anh - Vó ngựa trên đồi cỏ non
TTITLE3=Lưu Hồng - Sương lạnh chiều đông
TTITLE4=Lan Ngọc - Từ đó em buồn
TTITLE5=Giao Linh, Thế Anh - Đợi em về
TTITLE6=Lan Ngọc - Cỏ úa
TTITLE7=Thế Anh - Đôi mắt người xưa
TTITLE8=Lưu Hồng - Bơ vơ ngõ hẹn hò
TTITLE9=Thế Anh - Tình đến không ngờ
EXTD=
EXTT0=
EXTT1=
EXTT2=
EXTT3=
EXTT4=
EXTT5=
EXTT6=
EXTT7=
EXTT8=
EXTT9=
PLAYORDER=
